<svg version="1.1" id="Layer_1" xmlns="http://www.w3.org/2000/svg" xmlns:xlink="http://www.w3.org/1999/xlink" x="0px" y="0px"
	 width="100%" viewBox="0 0 512 512" enable-background="new 0 0 512 512" xml:space="preserve">
<path fill="#FFFFFF" opacity="1.000000" stroke="none" 
	d="
M289.000000,513.000000 
	C267.979095,513.000000 246.958206,513.000000 225.770599,512.631531 
	C224.765045,511.842926 223.969086,511.224274 223.080948,511.032440 
	C209.237045,508.042358 195.232468,505.665527 181.564896,502.022064 
	C163.518814,497.211334 146.653030,489.381165 130.377808,480.146698 
	C114.538345,471.159454 99.468948,461.018494 86.352875,448.523041 
	C74.329117,437.068176 62.982769,424.732208 52.577415,411.788086 
	C36.561935,391.865082 24.588863,369.433594 16.036448,345.305725 
	C9.729263,327.512054 4.449305,309.430176 2.906440,290.466248 
	C2.862760,289.929352 1.661500,289.486633 1.000001,289.000000 
	C1.000000,267.645782 1.000000,246.291550 1.364915,224.770111 
	C2.152298,223.766418 2.771593,222.973465 2.967735,222.086899 
	C5.956977,208.575592 8.352863,194.906418 11.963641,181.565430 
	C17.398338,161.485443 26.224020,142.794556 36.958542,124.955101 
	C51.342884,101.050110 69.297722,80.279152 90.369247,62.056030 
	C109.443871,45.559860 130.447708,32.161110 153.542618,22.124411 
	C175.777039,12.461667 198.779236,5.400861 223.032974,2.922410 
	C223.746674,2.849478 224.346878,1.665796 225.000000,1.000001 
	C246.020889,1.000000 267.041779,1.000000 288.229370,1.369072 
	C289.235229,2.157843 290.031677,2.775674 290.920074,2.967582 
	C304.764343,5.958107 318.770416,8.331924 332.436859,11.980536 
	C350.480835,16.797842 367.370483,24.562489 383.632904,33.846592 
	C399.447968,42.875298 414.534363,52.986340 427.650848,65.480789 
	C439.675079,76.934830 451.007080,89.280975 461.429169,102.213165 
	C477.472992,122.121010 489.344727,144.609726 497.954468,168.698120 
	C504.308136,186.474396 509.550598,204.569962 511.093597,223.533722 
	C511.137268,224.070633 512.338501,224.513351 513.000000,225.000000 
	C513.000000,246.020889 513.000000,267.041779 512.630981,288.229370 
	C511.842224,289.235199 511.224365,290.031525 511.032471,290.919891 
	C508.042053,304.764069 505.668549,318.770111 502.019806,332.436371 
	C497.202362,350.480072 489.438477,367.369843 480.153961,383.631836 
	C471.124908,399.446350 461.014740,414.533203 448.520386,427.649567 
	C437.066437,439.673676 424.730316,451.019653 411.786133,461.424408 
	C391.863190,477.438873 369.431885,489.411224 345.304657,497.963654 
	C327.511292,504.270874 309.429810,509.550812 290.466156,511.093597 
	C289.929291,511.137238 289.486603,512.338501 289.000000,513.000000 
M158.287216,306.939972 
	C161.077164,311.656158 163.513306,316.628448 166.712540,321.048370 
	C194.329788,359.202728 239.904343,375.927948 285.850922,364.614471 
	C302.540070,360.505066 317.797058,353.351715 330.720093,340.699310 
	C358.353027,314.025513 366.141968,280.812073 362.371918,243.912796 
	C361.649780,236.844910 361.216156,236.888702 354.273346,236.888641 
	C323.811768,236.888443 293.350220,236.888580 262.888641,236.888580 
	C261.102417,236.888580 259.316162,236.888565 257.277466,236.888565 
	C257.277466,250.755173 257.277466,264.130737 257.277466,277.993896 
	C277.605499,277.993896 297.661896,277.993896 318.380402,277.993896 
	C317.297974,281.772949 316.533203,284.986847 315.459137,288.093811 
	C311.750549,298.821960 304.415497,306.864716 295.274475,314.165710 
	C267.748993,330.537262 236.719635,328.413940 213.550400,308.547974 
	C204.214935,300.543457 198.132996,290.329315 193.718292,278.283295 
	C188.702805,263.785248 189.507858,249.274033 193.975540,234.125778 
	C194.627792,232.598877 195.271194,231.068115 195.933609,229.545639 
	C211.584778,193.573349 254.218857,178.326736 287.795715,196.806473 
	C292.102386,199.176743 296.022430,202.249542 300.731812,205.405853 
	C310.442902,194.980301 320.167236,184.540543 330.209778,173.759140 
	C330.151184,173.713821 329.209808,173.054276 328.344330,172.306839 
	C285.618347,135.409103 220.011124,137.634537 179.846664,177.430511 
	C170.956253,186.239365 162.994705,195.783157 157.728500,207.959442 
	C147.125931,229.065445 143.736084,251.319046 147.551422,274.581635 
	C149.372482,285.684845 152.122177,296.575165 158.287216,306.939972 
z"/>
<path fill="#EA4436" opacity="1.000000" stroke="none" 
	d="
M158.282928,207.611938 
	C162.994705,195.783157 170.956253,186.239365 179.846664,177.430511 
	C220.011124,137.634537 285.618347,135.409103 328.344330,172.306839 
	C329.209808,173.054276 330.151184,173.713821 330.209778,173.759140 
	C320.167236,184.540543 310.442902,194.980301 300.731812,205.405853 
	C296.022430,202.249542 292.102386,199.176743 287.795715,196.806473 
	C254.218857,178.326736 211.584778,193.573349 195.933609,229.545639 
	C195.271194,231.068115 194.627792,232.598877 193.482025,234.175369 
	C181.419968,225.353958 169.851456,216.482941 158.282928,207.611938 
z"/>
<path fill="#35A954" opacity="1.000000" stroke="none" 
	d="
M193.663147,279.037170 
	C198.132996,290.329315 204.214935,300.543457 213.550400,308.547974 
	C236.719635,328.413940 267.748993,330.537262 295.810547,314.376770 
	C307.598297,323.352997 318.850037,332.118195 330.101746,340.883362 
	C317.797058,353.351715 302.540070,360.505066 285.850922,364.614471 
	C239.904343,375.927948 194.329788,359.202728 166.712540,321.048370 
	C163.513306,316.628448 161.077164,311.656158 158.572723,306.470337 
	C170.459854,297.012848 182.061508,288.024994 193.663147,279.037170 
z"/>
<path fill="#4385F4" opacity="1.000000" stroke="none" 
	d="
M330.410919,340.791321 
	C318.850037,332.118195 307.598297,323.352997 296.152954,314.317444 
	C304.415497,306.864716 311.750549,298.821960 315.459137,288.093811 
	C316.533203,284.986847 317.297974,281.772949 318.380402,277.993896 
	C297.661896,277.993896 277.605499,277.993896 257.277466,277.993896 
	C257.277466,264.130737 257.277466,250.755173 257.277466,236.888565 
	C259.316162,236.888565 261.102417,236.888580 262.888641,236.888580 
	C293.350220,236.888580 323.811768,236.888443 354.273346,236.888641 
	C361.216156,236.888702 361.649780,236.844910 362.371918,243.912796 
	C366.141968,280.812073 358.353027,314.025513 330.410919,340.791321 
z"/>
<path fill="#FBBC07" opacity="1.000000" stroke="none" 
	d="
M193.690720,278.660217 
	C182.061508,288.024994 170.459854,297.012848 158.551819,306.137695 
	C152.122177,296.575165 149.372482,285.684845 147.551422,274.581635 
	C143.736084,251.319046 147.125931,229.065445 158.005707,207.785690 
	C169.851456,216.482941 181.419968,225.353958 193.304169,234.490143 
	C189.507858,249.274033 188.702805,263.785248 193.690720,278.660217 
z"/>
</svg>