<svg version="1.1" id="Layer_1" xmlns="http://www.w3.org/2000/svg" xmlns:xlink="http://www.w3.org/1999/xlink" x="0px" y="0px"
	 width="100%" viewBox="0 0 586 586" enable-background="new 0 0 586 586" xml:space="preserve">
<path fill="#FDDC3F" opacity="1.000000" stroke="none" 
	d="
M1.000000,322.000000 
	C1.000000,303.645782 1.000000,285.291534 1.338505,266.232880 
	C2.471485,258.831482 2.899161,252.066742 4.122406,245.449036 
	C10.196999,212.585709 20.491922,181.210251 36.951328,151.937881 
	C54.844841,120.115036 77.305122,92.188721 105.520073,68.898735 
	C125.941582,52.041840 147.822327,37.705559 172.082458,26.846815 
	C197.140976,15.630709 222.893646,7.248654 250.216599,3.911143 
	C255.517181,3.263675 260.740845,1.986634 266.000000,0.999999 
	C284.354218,1.000000 302.708466,1.000000 321.765991,1.338113 
	C337.630127,4.411023 352.911224,6.612987 367.924896,10.000172 
	C393.127808,15.686112 416.652344,25.852465 439.114166,38.551064 
	C459.409210,50.024685 478.160828,63.692066 494.944489,79.781898 
	C505.540527,89.939850 515.819275,100.710289 524.549500,112.462135 
	C535.596436,127.332634 545.628845,143.078949 554.800049,159.186966 
	C564.247009,175.779297 571.305847,193.626343 576.037842,212.196045 
	C579.153137,224.421097 581.458130,236.855484 584.007446,249.220581 
	C585.154175,254.782959 586.011414,260.405029 587.000000,266.000000 
	C587.000000,284.354218 587.000000,302.708466 586.662109,321.768127 
	C585.205994,330.786407 584.712708,339.243469 582.835144,347.381104 
	C579.296204,362.719330 576.016541,378.257446 570.661255,392.997528 
	C565.172546,408.104950 557.793457,422.596283 550.407776,436.927490 
	C538.701477,459.642426 522.976135,479.588257 505.372681,497.982208 
	C497.731506,505.966553 489.349396,513.286743 480.933075,520.474487 
	C465.997986,533.229309 449.628540,543.944641 432.334839,553.239990 
	C414.465759,562.844666 395.827759,570.682861 376.243134,575.924500 
	C363.915070,579.223999 351.286255,581.407959 338.776886,584.018127 
	C333.538605,585.111206 328.260193,586.011902 323.000000,587.000000 
	C303.979095,587.000000 284.958221,587.000000 265.233948,586.665649 
	C252.505066,584.485107 240.271042,583.489319 228.500641,580.602966 
	C208.422958,575.679504 188.906570,569.020386 170.013107,560.278564 
	C141.136230,546.917603 115.302742,529.250000 92.304451,507.528381 
	C81.899689,497.701233 72.515427,486.707123 63.348537,475.677002 
	C50.996433,460.814331 40.302475,444.633789 32.253662,427.100800 
	C24.452948,410.108246 17.546619,392.607971 11.687603,374.855408 
	C7.804491,363.089722 6.427051,350.493073 3.989991,338.256073 
	C2.913993,332.853180 1.991940,327.419617 1.000000,322.000000 
M156.216766,485.451813 
	C175.254944,476.634796 194.615616,468.442566 213.242310,458.828308 
	C232.592148,448.840881 251.197220,437.415619 270.223846,426.790771 
	C272.792633,425.356262 275.883820,424.298187 278.794800,424.129242 
	C293.894958,423.252930 309.198059,423.984283 324.093109,421.826630 
	C364.181213,416.019684 399.418030,399.527710 427.078796,369.330933 
	C455.437134,338.372650 467.196045,302.034119 457.724731,260.466553 
	C449.727051,225.366699 428.391266,199.189026 398.830048,179.714844 
	C356.033966,151.521835 308.805206,143.482132 258.716919,151.568909 
	C221.036224,157.652466 187.554642,173.142761 161.048508,201.065048 
	C126.616356,237.336823 115.036011,279.683624 132.391434,327.625458 
	C144.388336,360.765167 168.533829,383.786316 198.706985,400.912781 
	C205.552063,404.798065 206.107056,405.899078 203.818649,413.413452 
	C203.241074,415.309998 202.495743,417.237640 201.423294,418.888397 
	C192.276917,432.966919 183.319000,447.181274 173.720322,460.947540 
	C167.929337,469.252869 161.099167,476.833618 154.237442,485.049561 
	C154.662247,485.241180 155.087051,485.432800 156.216766,485.451813 
z"/>
<path fill="#3A2929" opacity="1.000000" stroke="none" 
	d="
M154.735931,484.739929 
	C161.099167,476.833618 167.929337,469.252869 173.720322,460.947540 
	C183.319000,447.181274 192.276917,432.966919 201.423294,418.888397 
	C202.495743,417.237640 203.241074,415.309998 203.818649,413.413452 
	C206.107056,405.899078 205.552063,404.798065 198.706985,400.912781 
	C168.533829,383.786316 144.388336,360.765167 132.391434,327.625458 
	C115.036011,279.683624 126.616356,237.336823 161.048508,201.065048 
	C187.554642,173.142761 221.036224,157.652466 258.716919,151.568909 
	C308.805206,143.482132 356.033966,151.521835 398.830048,179.714844 
	C428.391266,199.189026 449.727051,225.366699 457.724731,260.466553 
	C467.196045,302.034119 455.437134,338.372650 427.078796,369.330933 
	C399.418030,399.527710 364.181213,416.019684 324.093109,421.826630 
	C309.198059,423.984283 293.894958,423.252930 278.794800,424.129242 
	C275.883820,424.298187 272.792633,425.356262 270.223846,426.790771 
	C251.197220,437.415619 232.592148,448.840881 213.242310,458.828308 
	C194.615616,468.442566 175.254944,476.634796 155.676254,485.311829 
	C155.002472,485.027863 154.869202,484.883881 154.735931,484.739929 
z"/>
<path fill="#3A2929" opacity="1.000000" stroke="none" 
	d="
M155.323792,485.398132 
	C155.087051,485.432800 154.662247,485.241180 154.486694,484.894745 
	C154.869202,484.883881 155.002472,485.027863 155.323792,485.398132 
z"/>
</svg>